<?xml version="1.0" encoding="utf-8"?>
<!-- Generator: Adobe Illustrator 16.0.0, SVG Export Plug-In . SVG Version: 6.00 Build 0)  -->
<!DOCTYPE svg PUBLIC "-//W3C//DTD SVG 1.1//EN" "http://www.w3.org/Graphics/SVG/1.1/DTD/svg11.dtd">
<svg version="1.1" id="Layer_1" xmlns="http://www.w3.org/2000/svg" xmlns:xlink="http://www.w3.org/1999/xlink" x="0px" y="0px"
	 width="42px" height="46px" viewBox="729 727 42 46" enable-background="new 729 727 42 46" xml:space="preserve">
<g id="H_Alone" display="none">
	<path display="inline" fill="#FFFFFF" d="M875.186,807.708v255.3h-43.084c-8.752,0-15.848,7.096-15.848,15.829
		c0,5.713,3.057,10.734,7.605,13.5l96.83,92.826c2.872,3.785,8.622,6.659,13.754,6.659c5.239,0,9.897-2.729,12.771-6.659
		l103.162-92.826c4.512-2.802,7.531-7.787,7.531-13.5c0-8.733-7.097-15.829-15.828-15.829h-43.23l-0.362-616.846
		c0-8.732-6.949-15.829-15.685-15.829h-91.696c-8.753,0-15.921,7.097-15.921,15.829v238.125l-250.36-0.036v-247.24h43.083
		c8.752,0,15.838-7.096,15.838-15.829c0-5.73-3.038-10.733-7.587-13.519l-96.829-92.826c-2.894-3.784-8.642-6.659-13.772-6.659
		c-5.239,0-9.88,2.729-12.755,6.659l-103.16,92.845c-4.529,2.784-7.551,7.787-7.551,13.5c0,8.733,7.097,15.829,15.838,15.829h43.229
		l0.373,616.827c0,8.733,6.932,15.829,15.674,15.829h91.699c8.751,0,15.92-7.096,15.92-15.829v-246.13H875.186L875.186,807.708z"/>
</g>
<g id="Flat" display="none">
	<path display="inline" fill="#2BC56D" d="M1417.403,674.185c-2.692-138.385-12.826-262.505-30.493-292.926
		c-14.9-25.688-89.971-80.163-183.961-139.513L952.343,97.066C858.479,47.833,778.716,12.5,749.97,12.5
		c-35.425,0-148.354,53.563-269.655,120.663c-91.898,50.835-188.527,109.384-260.014,158.508
		c-56.129,38.535-96.774,71.212-107.272,89.588c-10.726,18.759-18.658,72.449-23.853,142.752c-0.009,0.091-0.009,0.218-0.019,0.31
		c-0.009,0.072-0.018,0.128-0.018,0.199c-6.55,89.007-8.697,204.558-6.368,310.721c2.947,134.382,13.009,253.48,30.257,283.502
		c41.701,72.631,553.63,368.759,636.941,368.759c34.604,0,143.188-51.198,261.286-116.188
		c93.3-51.345,192.403-111.238,265.835-161.454l0,0c57.384-39.245,99.121-72.577,109.819-91.116
		c10.626-18.413,18.521-70.885,23.743-139.841C1417.203,892.078,1419.46,779.093,1417.403,674.185z M1050.354,1092.323
		l-103.159,92.845c-2.875,3.93-7.496,6.659-12.736,6.659c-5.131,0-10.88-2.875-13.791-6.659l-96.829-92.827
		c-4.549-2.783-7.569-7.787-7.569-13.518c0-8.733,7.078-15.829,15.829-15.829h43.084V807.712H624.822v246.131
		c0,8.732-7.169,15.828-15.92,15.828h-91.699c-8.742,0-15.674-7.096-15.674-15.828l-0.373-616.837h-43.229
		c-8.742,0-15.838-7.096-15.838-15.829c0-5.713,3.021-10.716,7.551-13.5l103.16-92.845c2.874-3.93,7.515-6.659,12.754-6.659
		c5.131,0,10.88,2.875,13.772,6.659l96.829,92.827c4.549,2.783,7.587,7.787,7.587,13.518c0,8.733-7.086,15.829-15.838,15.829
		h-43.083v247.24l250.359,0.036V446.157c0-8.732,7.168-15.828,15.92-15.828H982.8c8.752,0,15.665,7.096,15.665,15.828l0.383,616.837
		h43.229c8.752,0,15.848,7.096,15.848,15.829C1057.924,1084.536,1054.903,1089.539,1050.354,1092.323z"/>
</g>
<g id="Gradient">
	<g>
		<g>
			
				<linearGradient id="SVGID_1_" gradientUnits="userSpaceOnUse" x1="1026.0684" y1="519.3135" x2="1026.0684" y2="539.5" gradientTransform="matrix(1 0 0 -1 -270 1267)">
				<stop  offset="0" style="stop-color:#25A559"/>
				<stop  offset="1" style="stop-color:#30CE68"/>
			</linearGradient>
			<path fill="url(#SVGID_1_)" d="M749.999,727.5c-1.081,0-4.526,1.634-8.227,3.681l28.59,16.506
				c-0.082-4.222-0.393-8.008-0.931-8.936c-0.456-0.784-2.746-2.446-5.613-4.256l-7.645-4.414
				C753.31,728.578,750.876,727.5,749.999,727.5z"/>
			
				<linearGradient id="SVGID_2_" gradientUnits="userSpaceOnUse" x1="1022.1123" y1="510.0171" x2="1022.1123" y2="535.8193" gradientTransform="matrix(1 0 0 -1 -270 1267)">
				<stop  offset="0" style="stop-color:#25A559"/>
				<stop  offset="1" style="stop-color:#30CE68"/>
			</linearGradient>
			<path fill="url(#SVGID_2_)" d="M733.839,736.017l36.315,20.966c0.201-2.648,0.269-6.096,0.208-9.296l-28.59-16.506
				C738.968,732.732,736.021,734.519,733.839,736.017z"/>
			
				<linearGradient id="SVGID_3_" gradientUnits="userSpaceOnUse" x1="1019.9971" y1="502.9614" x2="1019.9971" y2="530.9829" gradientTransform="matrix(1 0 0 -1 -270 1267)">
				<stop  offset="0" style="stop-color:#25A559"/>
				<stop  offset="1" style="stop-color:#30CE68"/>
			</linearGradient>
			<path fill="url(#SVGID_3_)" d="M733.839,736.017c-1.712,1.176-2.952,2.172-3.273,2.733c-0.328,0.574-0.57,2.218-0.728,4.37
				l36.229,20.918c1.757-1.201,3.036-2.222,3.364-2.789c0.323-0.562,0.564-2.163,0.723-4.267L733.839,736.017z"/>
			
				<linearGradient id="SVGID_4_" gradientUnits="userSpaceOnUse" x1="1017.8486" y1="498.0444" x2="1017.8486" y2="523.8945" gradientTransform="matrix(1 0 0 -1 -270 1267)">
				<stop  offset="0" style="stop-color:#25A559"/>
				<stop  offset="1" style="stop-color:#30CE68"/>
			</linearGradient>
			<path fill="url(#SVGID_4_)" d="M766.08,764.03l-36.24-20.925c-0.202,2.717-0.267,6.25-0.196,9.496l28.326,16.354
				C760.816,767.389,763.841,765.562,766.08,764.03z"/>
			
				<linearGradient id="SVGID_5_" gradientUnits="userSpaceOnUse" x1="1013.8066" y1="494.5005" x2="1013.8066" y2="514.3989" gradientTransform="matrix(1 0 0 -1 -270 1267)">
				<stop  offset="0" style="stop-color:#25A559"/>
				<stop  offset="1" style="stop-color:#30CE68"/>
			</linearGradient>
			<path fill="url(#SVGID_5_)" d="M729.644,752.602c0.09,4.1,0.397,7.732,0.923,8.648c1.273,2.216,16.891,11.25,19.433,11.25
				c1.056,0,4.369-1.562,7.971-3.544L729.644,752.602z"/>
		</g>
		<g>
			
				<image overflow="visible" opacity="0.1" enable-background="new    " width="676" height="944" xlink:href="9994F3E936A32038.png"  transform="matrix(0.0305 0 0 0.0305 739.688 735.6914)">
			</image>
			<g>
				<path fill="#FFFFFF" d="M753.818,751.761v7.789h-1.314c-0.267,0-0.483,0.216-0.483,0.482c0,0.175,0.094,0.327,0.232,0.411
					l2.954,2.832c0.088,0.115,0.264,0.203,0.419,0.203c0.16,0,0.303-0.083,0.391-0.203l3.146-2.832
					c0.138-0.086,0.229-0.236,0.229-0.411c0-0.267-0.216-0.482-0.482-0.482h-1.319l-0.011-18.819c0-0.267-0.212-0.483-0.479-0.483
					h-2.797c-0.268,0-0.486,0.217-0.486,0.483v7.264l-7.638-0.001v-7.542h1.314c0.267,0,0.483-0.217,0.483-0.483
					c0-0.175-0.093-0.328-0.231-0.413l-2.955-2.832c-0.088-0.116-0.264-0.204-0.42-0.204c-0.16,0-0.301,0.084-0.389,0.204
					l-3.147,2.833c-0.138,0.085-0.23,0.238-0.23,0.412c0,0.266,0.216,0.483,0.483,0.483h1.319l0.011,18.817
					c0,0.268,0.211,0.483,0.478,0.483h2.798c0.267,0,0.486-0.216,0.486-0.483v-7.508H753.818z"/>
			</g>
		</g>
	</g>
</g>
</svg>
